<?xml version="1.0" encoding="UTF-8" standalone="no"?>
<svg
   viewBox="0 0 35 35"
   version="1.1"
   id="svg2"
   width="35"
   height="35"
   xmlns="http://www.w3.org/2000/svg"
   xmlns:svg="http://www.w3.org/2000/svg">
  <defs
     id="defs2" />
  <title
     id="title1">The Weather Channel</title>
  <path
     id="path1"
     style="fill:#aeacfe;fill-opacity:1;fill-rule:evenodd"
     d="M 0,0 V 35 H 35 V 0 Z m 8.3515625,9.328125 h 0.00195 c 0.05,0.238 0.076172,0.6465 0.076172,1.0625 v 0.867187 c 0,0.137001 -0.017578,0.314235 -0.017578,0.365235 0.298,-0.28 0.7894219,-0.466797 1.2324218,-0.466797 0.5359997,0 0.9958597,0.256094 1.1308597,0.621094 0.086,0.247 0.111328,0.315593 0.111328,0.808594 v 3.042968 H 9.7734375 v -2.925781 c 0,-0.434 -0.1203594,-0.59375 -0.4433594,-0.59375 -0.28,0 -0.6463906,0.170391 -0.9003906,0.400391 v 3.11914 H 7.2714844 v -5.033203 c 0,-0.408 -0.032984,-0.8161405 -0.083984,-0.9941405 z M 2.5371094,9.7207031 H 6.796875 L 6.6015625,10.705078 H 5.1914062 v 4.923828 H 3.9824219 V 10.705078 H 2.5371094 Z M 13.597656,11.189453 h 0.002 c 0.501273,4.46e-4 0.976227,0.171318 1.25586,0.460938 0.4,0.408 0.580078,0.994296 0.580078,1.904297 v 0.261718 h -2.517578 v 0.03516 c 0,0.671 0.331968,1.054688 0.917969,1.054688 0.391,0 0.757468,-0.144594 1.105468,-0.433594 l 0.44336,0.679688 c -0.502,0.408 -1.031578,0.603515 -1.642578,0.603515 -1.25,0 -2.056641,-0.882953 -2.056641,-2.251953 0,-0.782 0.160969,-1.300562 0.542969,-1.726562 0.356587,-0.399538 0.791143,-0.587459 1.36914,-0.587891 z m 0.01758,0.833985 c -0.433,0 -0.679687,0.340359 -0.679687,0.943359 v 0.01758 h 1.318359 v -0.05078 c 0,-0.324 -0.03472,-0.493297 -0.136718,-0.654297 -0.11,-0.17 -0.271954,-0.25586 -0.501954,-0.255859 z m 8.6875,5.355468 c 0.051,0.238 0.07813,0.6465 0.07813,1.0625 v 0.867188 c 0,0.136 -0.01758,0.314234 -0.01758,0.365234 0.297,-0.28 0.790422,-0.466797 1.232422,-0.466797 0.536,0 0.99486,0.254141 1.130859,0.619141 0.085,0.247 0.109376,0.315594 0.109376,0.808594 v 3.042968 h -1.113282 v -2.923828 c 0,-0.434 -0.119406,-0.595703 -0.441406,-0.595703 -0.28,0 -0.645391,0.170391 -0.900391,0.400391 v 3.121094 h -1.158203 v -5.033204 c 0,-0.409 -0.03298,-0.818093 -0.08398,-0.996093 z M 2.5722656,17.769531 h 1.2578125 l 0.5097657,2.330078 c 0.2469999,1.105 0.3144531,1.947266 0.3144531,1.947266 0.025,-0.23 0.1276406,-1.072672 0.3066406,-1.888672 l 0.5273437,-2.388672 h 1.2988282 l 0.5449218,2.644531 c 0.1100001,0.552 0.2558594,1.564454 0.2558594,1.564454 0.017,-0.187 0.2192656,-1.470844 0.3222656,-1.964844 l 0.484375,-2.244141 h 1.25 L 8.2167969,23.730469 H 6.9160156 l -0.5273437,-2.40625 c -0.204,-0.919 -0.2712969,-1.66775 -0.2792969,-1.71875 0,0 -0.1210156,0.834172 -0.2910156,1.701172 L 5.3359375,23.728516 H 3.9824219 Z m 17.2988284,0.238281 c -0.043,0.4 -0.06641,0.867547 -0.06641,1.310547 h 1.019531 l -0.291016,0.75586 h -0.728515 v 2.21875 c 0,0.552 0.101187,0.697265 0.492187,0.697265 0.102,0 0.204203,-0.02694 0.408203,-0.08594 l 0.144531,0.681641 a 2.39,2.39 0 0 1 -0.925781,0.195312 c -0.578,0 -1.046828,-0.256672 -1.173828,-0.638672 -0.06,-0.164 -0.07417,-0.249156 -0.07617,-0.535156 v -2.533203 h -0.435547 v -0.740235 h 0.435547 c 0,-0.425 -3.1e-5,-0.714109 0.04297,-1.037109 z m 11.214844,1.216797 c 0.102,0.178 0.160734,0.373141 0.177734,0.619141 a 1.97,1.97 0 0 1 0.646484,-0.550781 c 0.093,-0.043 0.245047,-0.06836 0.373047,-0.06836 0.17,0 0.246781,0.0158 0.425781,0.0918 l -0.314453,1.003906 A 0.643,0.643 0 0 0 32.0625,20.234375 c -0.255,0 -0.485266,0.121188 -0.697266,0.367187 v 3.076172 h -1.138672 v -2.90625 c 0,-0.587 -0.06911,-1.02939 -0.162109,-1.27539 z m -14.972657,0.0078 c 0.731,0 1.234297,0.270859 1.404297,0.755859 0.06,0.178 0.07617,0.315203 0.07617,0.783203 l -0.02539,1.460938 v 0.07813 c 0,0.467 0.0762,0.644625 0.408203,0.890625 l -0.605468,0.699219 c -0.263,-0.111 -0.500328,-0.307297 -0.611328,-0.529297 -0.161,0.153 -0.178672,0.170468 -0.263672,0.230468 -0.213,0.153 -0.518,0.238282 -0.875,0.238282 -0.97,0 -1.496094,-0.492375 -1.496094,-1.359375 0,-1.02 0.705797,-1.498047 2.091797,-1.498047 0.085,0 0.134906,7.65e-4 0.253906,0.0098 V 20.8125 c 0,-0.484 -0.09277,-0.644531 -0.509765,-0.644531 -0.366,0 -0.789813,0.178187 -1.257813,0.492187 L 14.21875,19.84375 c 0.28,-0.178 0.399078,-0.238422 0.705078,-0.357422 0.425,-0.178 0.789453,-0.253906 1.189453,-0.253906 z m -4.353515,0.0078 h 0.002 c 0.502,0 0.976812,0.169985 1.257812,0.458985 0.4,0.408 0.578125,0.994297 0.578125,1.904297 v 0.263672 h -2.517578 v 0.03516 c 0,0.671 0.331969,1.052734 0.917969,1.052734 0.391,0 0.756469,-0.144594 1.105469,-0.433594 l 0.443359,0.679688 c -0.502,0.408 -1.031578,0.605469 -1.642578,0.605469 -1.25,0 -2.0566408,-0.884907 -2.0566408,-2.253907 0,-0.782 0.1619218,-1.300562 0.5449218,-1.726562 0.357,-0.4 0.789188,-0.585938 1.367188,-0.585938 z m 15.789062,0 c 0.501,0 0.976813,0.169985 1.257813,0.458985 0.4,0.408 0.578125,0.994297 0.578125,1.904297 v 0.263672 h -2.517578 v 0.03516 c 0,0.671 0.332921,1.052734 0.919921,1.052734 0.39,0 0.756469,-0.144594 1.105469,-0.433594 l 0.441406,0.679688 c -0.502,0.408 -1.028625,0.605469 -1.640625,0.605469 -1.25,0 -2.05664,-0.884907 -2.05664,-2.253907 0,-0.782 0.159969,-1.300562 0.542969,-1.726562 0.356999,-0.4 0.79014,-0.585938 1.36914,-0.585938 z m -15.771484,0.833985 c -0.433,0 -0.679688,0.340359 -0.679688,0.943359 v 0.01563 h 1.31836 v -0.04883 c 0,-0.324 -0.03472,-0.49525 -0.136719,-0.65625 -0.11,-0.17 -0.271953,-0.253906 -0.501953,-0.253906 z m 15.789062,0 c -0.434,0 -0.679687,0.340359 -0.679687,0.943359 v 0.01563 h 1.316406 v -0.04883 c 0,-0.324 -0.03472,-0.49525 -0.136719,-0.65625 -0.11,-0.17 -0.271,-0.253906 -0.5,-0.253906 z m -11.162109,1.699219 c -0.792,0 -1.064453,0.146062 -1.064453,0.664062 0,0.34 0.212953,0.570312 0.501953,0.570312 0.213,0 0.425703,-0.110828 0.595703,-0.298828 l 0.01563,-0.935546 z m -7.7539064,3.654296 c 0.051,0.238 0.076172,0.6455 0.076172,1.0625 v 0.867188 c 0,0.136 -0.015625,0.314234 -0.015625,0.365234 0.297,-0.28 0.7884687,-0.466797 1.2304687,-0.466797 0.5359997,0 0.9948597,0.256094 1.1308597,0.621094 0.085,0.247 0.111328,0.313641 0.111328,0.806641 v 3.044922 h -1.113282 v -2.925782 c 0,-0.434 -0.1184056,-0.595703 -0.4414057,-0.595703 -0.2799999,0 -0.6473437,0.170391 -0.9023437,0.400391 v 3.121094 h -1.15625 v -5.033204 c 0,-0.408 -0.033938,-0.817093 -0.085937,-0.996093 z m 22.2734374,0.0078 c 0.043,0.238 0.06055,0.518859 0.06055,1.130859 v 3.675782 c 0.003,0.495 0.01817,0.583546 0.07617,0.685546 0.043,0.077 0.134515,0.121094 0.228515,0.121094 0.042,0 0.06991,-5.78e-4 0.128907,-0.01758 l 0.195312,0.679688 a 1.902,1.902 0 0 1 -0.679687,0.11914 c -0.485,0 -0.875719,-0.230703 -1.011719,-0.595703 -0.077,-0.201 -0.09952,-0.332312 -0.103516,-0.820313 v -3.404296 c 0,-0.57 -0.01559,-0.918547 -0.05859,-1.310547 z M 5.4023438,25.691406 c 0.586,0 1.1730937,0.186797 1.4960937,0.466797 L 6.3632812,26.966797 A 1.557,1.557 0 0 0 5.4199219,26.634766 c -0.4,0 -0.7889532,0.195765 -1.0019531,0.509765 -0.2300001,0.34 -0.3320313,0.834438 -0.3320313,1.523438 0,0.808 0.066141,1.257078 0.2441406,1.580078 0.239,0.434 0.630625,0.664062 1.140625,0.664062 a 1.53,1.53 0 0 0 1.0117188,-0.382812 l 0.5449219,0.748047 c -0.468,0.383 -0.9696251,0.552734 -1.640625,0.552734 -0.816,0 -1.4476407,-0.264406 -1.9316407,-0.816406 -0.476,-0.536 -0.7128906,-1.250188 -0.7128906,-2.117188 0,-0.74 0.1273906,-1.325937 0.4003906,-1.835937 a 2.539,2.539 0 0 1 2.2597657,-1.369141 z m 11.9960942,1.572266 c 0.102,0.179 0.162109,0.366922 0.162109,0.544922 0.263,-0.187 0.313,-0.221219 0.5,-0.324219 0.23,-0.119 0.527203,-0.185547 0.783203,-0.185547 0.484,0 0.909922,0.253906 1.044922,0.628906 0.06,0.16 0.08594,0.349094 0.08594,0.621094 v 3.179688 h -1.123047 v -2.832032 c 0,-0.494 -0.08481,-0.636718 -0.382812,-0.636718 -0.23,0 -0.526063,0.152625 -0.789062,0.390625 v 3.078125 h -1.140626 v -3.154297 c 0,-0.375 -0.05034,-0.731532 -0.152343,-1.019531 z m 4.53125,0 c 0.102,0.179 0.162109,0.366922 0.162109,0.544922 0.264,-0.187 0.314953,-0.221219 0.501953,-0.324219 0.23,-0.119 0.52625,-0.185547 0.78125,-0.185547 0.484,0 0.910875,0.253906 1.046875,0.628906 0.059,0.16 0.08398,0.349094 0.08398,0.621094 v 3.179688 h -1.123047 v -2.832032 c 0,-0.494 -0.08386,-0.636718 -0.380859,-0.636718 -0.23,0 -0.528016,0.152625 -0.791015,0.390625 v 3.078125 h -1.140626 v -3.154297 c 0,-0.375 -0.05034,-0.731532 -0.152343,-1.019531 z m -7.933594,0.01758 h 0.002 c 0.73,0 1.232344,0.270859 1.402344,0.755859 0.06,0.178 0.07617,0.315204 0.07617,0.783203 l -0.02539,1.460938 v 0.07813 c 0,0.467 0.0772,0.645578 0.408203,0.892578 l -0.603516,0.697266 c -0.264,-0.11 -0.501328,-0.306344 -0.611328,-0.527344 -0.162,0.153 -0.178672,0.170469 -0.263672,0.230469 -0.212,0.152 -0.518,0.236328 -0.875,0.236328 -0.97,0 -1.498047,-0.492375 -1.498047,-1.359375 0,-1.02 0.705797,-1.496094 2.091797,-1.496094 0.085,0 0.13686,-1.87e-4 0.25586,0.0078 v -0.177735 c 0,-0.485 -0.09377,-0.646484 -0.509766,-0.646484 -0.366,0 -0.791766,0.17914 -1.259765,0.494141 l -0.484376,-0.81836 c 0.28,-0.178 0.400079,-0.238422 0.705079,-0.357422 0.425,-0.178 0.790453,-0.253906 1.189453,-0.253906 z m 13.203125,0.0078 c 0.502,0 0.978765,0.169985 1.259765,0.458985 0.4,0.408 0.578125,0.995297 0.578125,1.904297 v 0.265625 h -2.517578 v 0.0332 c 0,0.671 0.331969,1.054687 0.917969,1.054687 0.392,0 0.758422,-0.146546 1.107422,-0.435547 l 0.441406,0.681641 c -0.502,0.409 -1.028625,0.603516 -1.640625,0.603516 -1.25,0 -2.058594,-0.884907 -2.058594,-2.253907 0,-0.782 0.161922,-1.298609 0.544922,-1.724609 0.357,-0.4 0.789188,-0.587891 1.367188,-0.587891 z m 0.01758,0.833985 c -0.432732,0.0011 -0.679688,0.340305 -0.679688,0.943359 v 0.01758 h 1.31836 v -0.05078 c 0,-0.323 -0.03472,-0.492297 -0.136719,-0.654297 -0.109668,-0.169486 -0.271104,-0.255347 -0.5,-0.255859 z m -12.929688,1.701172 c -0.791,0 -1.0625,0.144109 -1.0625,0.662109 0,0.34 0.212954,0.570313 0.501953,0.570313 0.212,0 0.42375,-0.110828 0.59375,-0.298829 l 0.01758,-0.933593 z" />
</svg>
