<?xml version="1.0" encoding="UTF-8" standalone="no"?>
<!-- Created with Inkscape (http://www.inkscape.org/) -->

<svg
   width="180"
   height="48"
   viewBox="0 0 47.625 12.7"
   version="1.1"
   id="svg1"
   xml:space="preserve"
   sodipodi:docname="logo.svg"
   inkscape:version="1.4 (e7c3feb100, 2024-10-09)"
   xmlns:inkscape="http://www.inkscape.org/namespaces/inkscape"
   xmlns:sodipodi="http://sodipodi.sourceforge.net/DTD/sodipodi-0.dtd"
   xmlns:xlink="http://www.w3.org/1999/xlink"
   xmlns="http://www.w3.org/2000/svg"
   xmlns:svg="http://www.w3.org/2000/svg"><sodipodi:namedview
     id="namedview1"
     pagecolor="#ffffff"
     bordercolor="#000000"
     borderopacity="0.25"
     inkscape:showpageshadow="2"
     inkscape:pageopacity="0.0"
     inkscape:pagecheckerboard="0"
     inkscape:deskcolor="#d1d1d1"
     inkscape:document-units="px"
     inkscape:zoom="3.5585077"
     inkscape:cx="65.05536"
     inkscape:cy="20.092692"
     inkscape:window-width="1920"
     inkscape:window-height="1018"
     inkscape:window-x="0"
     inkscape:window-y="0"
     inkscape:window-maximized="1"
     inkscape:current-layer="svg1"
     showgrid="false"><inkscape:page
       x="0"
       y="0"
       width="47.625"
       height="12.7"
       id="page3"
       margin="0"
       bleed="0" /><inkscape:grid
       id="grid4"
       units="px"
       originx="0"
       originy="0"
       spacingx="0.26458333"
       spacingy="0.26458333"
       empcolor="#0099e5"
       empopacity="0.30196078"
       color="#0099e5"
       opacity="0.14901961"
       empspacing="5"
       enabled="true"
       visible="false" /></sodipodi:namedview><defs
     id="defs1"><inkscape:path-effect
       effect="fillet_chamfer"
       id="path-effect4"
       is_visible="true"
       lpeversion="1"
       nodesatellites_param="F,0,1,1,0,0.26458345,0,1 @ F,0,1,1,0,0.26458345,0,1 @ F,0,1,1,0,0.26458345,0,1 @ F,0,0,1,0,0.26458345,0,1"
       radius="0"
       unit="px"
       method="auto"
       mode="F"
       chamfer_steps="1"
       flexible="false"
       use_knot_distance="true"
       apply_no_radius="true"
       apply_with_radius="true"
       only_selected="false"
       hide_knots="false" /><color-profile
       name="sRGB-elle-V2-g10.icc"
       xlink:href="file:///usr/share/color/icc/krita/sRGB-elle-V2-g10.icc"
       id="color-profile3" /><color-profile
       name="Built-in-display"
       xlink:href="../../../../.local/share/icc/edid-d3090bfe21f1b2e48aa69d3ad501fc2b.icc"
       id="color-profile4" /><inkscape:path-effect
       effect="fillet_chamfer"
       id="path-effect29"
       is_visible="true"
       lpeversion="1"
       nodesatellites_param="F,0,0,1,0,1,0,1 @ F,0,0,1,0,1,0,1 @ F,0,0,1,0,1,0,1 @ F,0,0,1,0,1,0,1"
       radius="0"
       unit="px"
       method="auto"
       mode="F"
       chamfer_steps="1"
       flexible="false"
       use_knot_distance="true"
       apply_no_radius="true"
       apply_with_radius="true"
       only_selected="false"
       hide_knots="false" /><inkscape:path-effect
       effect="fillet_chamfer"
       id="path-effect4-8"
       is_visible="true"
       lpeversion="1"
       nodesatellites_param="F,0,1,1,0,0.26458345,0,1 @ F,0,1,1,0,0.26458345,0,1 @ F,0,1,1,0,0.26458345,0,1 @ F,0,0,1,0,0.26458345,0,1"
       radius="0"
       unit="px"
       method="auto"
       mode="F"
       chamfer_steps="1"
       flexible="false"
       use_knot_distance="true"
       apply_no_radius="true"
       apply_with_radius="true"
       only_selected="false"
       hide_knots="false" /><inkscape:path-effect
       effect="fillet_chamfer"
       id="path-effect4-1"
       is_visible="true"
       lpeversion="1"
       nodesatellites_param="F,0,1,1,0,0.26458345,0,1 @ F,0,1,1,0,0.26458345,0,1 @ F,0,1,1,0,0.26458345,0,1 @ F,0,0,1,0,0.26458345,0,1"
       radius="0"
       unit="px"
       method="auto"
       mode="F"
       chamfer_steps="1"
       flexible="false"
       use_knot_distance="true"
       apply_no_radius="true"
       apply_with_radius="true"
       only_selected="false"
       hide_knots="false" /><inkscape:path-effect
       effect="fillet_chamfer"
       id="path-effect4-9"
       is_visible="true"
       lpeversion="1"
       nodesatellites_param="F,0,1,1,0,0.26458345,0,1 @ F,0,1,1,0,0.26458345,0,1 @ F,0,1,1,0,0.26458345,0,1 @ F,0,0,1,0,0.26458345,0,1"
       radius="0"
       unit="px"
       method="auto"
       mode="F"
       chamfer_steps="1"
       flexible="false"
       use_knot_distance="true"
       apply_no_radius="true"
       apply_with_radius="true"
       only_selected="false"
       hide_knots="false" /></defs><path
     id="rect109528"
     style="fill:#2a2a2a;fill-opacity:1;stroke:none;stroke-width:0.79375;stroke-linecap:round;stroke-linejoin:round;stroke-dasharray:none;stroke-opacity:1;paint-order:normal"
     transform="matrix(0,-1.9999999,1.9999999,0,0,0)"
     d="m -4.8208337,0.5291667 h 3.291667 a 1,1 45 0 1 1,1 v 3.291667 a 1,1 135 0 1 -1,1 l -3.291667,0 a 1,1 45 0 1 -1,-1 v -3.291667 a 1,1 135 0 1 1,-1 z"
     inkscape:path-effect="#path-effect29"
     inkscape:original-d="m -5.8208337,0.5291667 h 5.291667 v 5.291667 h -5.291667 z" /><path
     id="path2"
     style="fill:#4ebf9a;fill-opacity:1;stroke-width:2;stroke-linecap:round;stroke-linejoin:round"
     d="m 3.0582113,1.0583333 a 1.9999999,1.9999999 0 0 0 -1.999878,1.999878 v 6.5835774 a 1.9999999,1.9999999 0 0 0 1.999878,1.9998783 H 9.6417887 A 1.9999999,1.9999999 0 0 0 11.641667,9.6417887 V 3.0582113 A 1.9999999,1.9999999 0 0 0 9.6417887,1.0583333 Z m 5.167e-4,0.7932333 h 6.5820272 c 0.6755958,0 1.2066448,0.5315663 1.2066448,1.2071614 v 6.5820272 c 0,0.6755958 -0.531049,1.2066448 -1.2066448,1.2066448 H 3.058728 c -0.6755951,0 -1.2071614,-0.531049 -1.2071614,-1.2066448 V 3.058728 c 0,-0.6755951 0.5315663,-1.2071614 1.2071614,-1.2071614 z" /><circle
     style="fill:#1b1b1b;fill-opacity:1;stroke:none;stroke-width:0.617873;stroke-dasharray:none;stroke-opacity:1;paint-order:normal"
     id="path4"
     cx="3.4395833"
     cy="8.3343754"
     r="0.79374999" /><rect
     style="fill:#1b1b1b;fill-opacity:1;stroke:none;stroke-width:2.17565;stroke-dasharray:none;stroke-opacity:1;paint-order:normal"
     id="rect6-9"
     width="7.9375"
     height="3.4395833"
     x="2.3812499"
     y="3.5718751" /><path
     id="rect6-9-9"
     style="fill:#1b1b1b;stroke-width:0.492686"
     d="m 5.2916683,5.8208332 h 4.7624987 a 0.26458345,0.26458345 45 0 1 0.264583,0.2645834 0.2645833,0.2645833 135.00003 0 1 -0.264583,0.2645832 l -4.7624987,0 A 0.26458345,0.26458345 45 0 1 5.0270849,6.0854163 0.2645833,0.2645833 135.00003 0 1 5.2916683,5.8208332 Z"
     inkscape:path-effect="#path-effect4"
     inkscape:original-d="M 5.0270849,5.8208332 H 10.31875 V 6.3499998 H 5.0270849 Z"
     transform="matrix(0.50000022,0,0,0.49999971,5.1593727,4.6302101)"
     sodipodi:nodetypes="ccccc" /><path
     id="rect6-9-9-7"
     style="fill:#1b1b1b;stroke-width:0.492686"
     d="m 5.2916683,5.8208332 h 4.7624987 a 0.26458345,0.26458345 45 0 1 0.264583,0.2645834 0.2645833,0.2645833 135.00003 0 1 -0.264583,0.2645832 l -4.7624987,0 A 0.26458345,0.26458345 45 0 1 5.0270849,6.0854163 0.2645833,0.2645833 135.00003 0 1 5.2916683,5.8208332 Z"
     inkscape:path-effect="#path-effect4-8"
     inkscape:original-d="M 5.0270849,5.8208332 H 10.31875 V 6.3499998 H 5.0270849 Z"
     transform="matrix(0.50000022,0,0,0.49999971,5.1593727,5.0711822)"
     sodipodi:nodetypes="ccccc" /><path
     id="rect6-9-9-78"
     style="fill:#1b1b1b;stroke-width:0.492686"
     d="m 5.2916683,5.8208332 h 4.7624987 a 0.26458345,0.26458345 45 0 1 0.264583,0.2645834 0.2645833,0.2645833 135.00003 0 1 -0.264583,0.2645832 l -4.7624987,0 A 0.26458345,0.26458345 45 0 1 5.0270849,6.0854163 0.2645833,0.2645833 135.00003 0 1 5.2916683,5.8208332 Z"
     inkscape:path-effect="#path-effect4-9"
     inkscape:original-d="M 5.0270849,5.8208332 H 10.31875 V 6.3499998 H 5.0270849 Z"
     transform="matrix(0.50000022,0,0,0.49999971,5.1593727,5.5121544)"
     sodipodi:nodetypes="ccccc" /><path
     id="rect6-9-9-9"
     style="fill:#1b1b1b;stroke-width:0.492686"
     d="m 5.2916683,5.8208332 h 4.7624987 a 0.26458345,0.26458345 45 0 1 0.264583,0.2645834 0.2645833,0.2645833 135.00003 0 1 -0.264583,0.2645832 l -4.7624987,0 A 0.26458345,0.26458345 45 0 1 5.0270849,6.0854163 0.2645833,0.2645833 135.00003 0 1 5.2916683,5.8208332 Z"
     inkscape:path-effect="#path-effect4-1"
     inkscape:original-d="M 5.0270849,5.8208332 H 10.31875 V 6.3499998 H 5.0270849 Z"
     transform="matrix(0.50000022,0,0,0.49999971,5.1593724,5.9531265)"
     sodipodi:nodetypes="ccccc" /><rect
     style="fill:#4ebf9a;fill-opacity:1;stroke:none;stroke-width:1.32396;stroke-dasharray:none;stroke-opacity:1;paint-order:normal"
     id="rect7-3"
     width="1.5875"
     height="1.5875"
     x="8.4666662"
     y="5.1593752" /><rect
     style="fill:#494949;fill-opacity:1;stroke:none;stroke-width:2.4769;stroke-dasharray:none;stroke-opacity:1;paint-order:normal"
     id="rect7"
     width="5.5562501"
     height="1.5875"
     x="2.6458333"
     y="5.1593752" /><rect
     style="fill:#494949;fill-opacity:1;stroke:none;stroke-width:2.33524;stroke-dasharray:none;stroke-opacity:1;paint-order:normal"
     id="rect7-32"
     width="7.4083333"
     height="1.0583333"
     x="2.6458333"
     y="3.8364584" /><g
     id="text2"
     style="font-weight:500;font-size:10.5833px;font-family:'Inter 24pt';-inkscape-font-specification:'Inter 24pt Medium';fill:#ee7762;stroke-width:1.5875"
     aria-label="EASip"><path
       style="font-style:italic;font-weight:bold;font-family:'JetBrains Mono';-inkscape-font-specification:'JetBrains Mono Medium';fill:#2a2a2a"
       d="m 13.42973,10.169922 1.227663,-7.7258089 h 4.635485 l -0.1905,1.1535797 H 15.779222 L 15.45114,5.6085197 h 2.963324 l -0.179916,1.1429964 h -2.963324 l -0.359832,2.2648261 h 3.333739 l -0.179916,1.1535798 z m 5.789069,0 3.174989,-7.7258089 H 24.0977 l 0.730247,7.7258089 H 23.515618 L 23.388619,8.2966778 h -2.05316 l -0.719665,1.8732442 z m 2.518825,-2.9527407 h 1.576912 L 23.176953,5.1428545 q -0.03175,-0.5185816 -0.0635,-0.9313303 -0.02117,-0.423332 -0.02117,-0.6138314 -0.0635,0.1904994 -0.211666,0.6138314 -0.137583,0.4127487 -0.328082,0.920747 z m 6.646316,3.0585737 q -0.772581,0 -1.312329,-0.275166 Q 26.531863,9.71484 26.288447,9.1962583 26.045031,8.6776766 26.150864,7.9897621 h 1.301746 q -0.08467,0.5185817 0.222249,0.8254974 0.306916,0.3069157 0.89958,0.3069157 0.560915,0 0.952497,-0.3069157 0.391582,-0.317499 0.465666,-0.8043308 Q 30.056101,7.62993 29.876185,7.3335976 29.706852,7.0372652 29.31527,6.9314322 L 28.32044,6.6668497 Q 27.516109,6.4551837 27.124527,5.8836855 26.732945,5.301604 26.859945,4.4972733 27.029278,3.4706932 27.738359,2.9097783 28.44744,2.3382801 29.56927,2.3382801 q 0.719664,0 1.217079,0.2751658 0.497415,0.2645825 0.730248,0.7514143 0.232832,0.4762485 0.137583,1.1112465 h -1.301746 q 0.07408,-0.4550819 -0.1905,-0.7196644 -0.264582,-0.2751658 -0.761997,-0.2751658 -0.497415,0 -0.836081,0.2751658 -0.338666,0.2645825 -0.402165,0.6984978 -0.0635,0.3598322 0.105833,0.6032481 0.169332,0.2328325 0.529165,0.3280822 l 1.02658,0.2751658 q 0.814914,0.211666 1.206496,0.846664 0.391582,0.6244147 0.253999,1.5028285 -0.169333,1.0794966 -0.93133,1.6721614 -0.761998,0.5926649 -1.968494,0.5926649 z"
       id="path5" /><path
       style="font-style:italic;font-weight:normal;font-family:'JetBrains Mono';-inkscape-font-specification:'JetBrains Mono Medium';fill:#4ebf9a"
       d="m 32.395015,10.169922 0.137583,-0.8678307 h 2.063743 l 0.645582,-4.0851537 h -1.799161 l 0.137582,-0.8678305 h 2.751658 l -0.783164,4.9529842 h 1.957911 L 37.369166,10.169922 Z M 35.97217,3.3013604 q -0.349249,0 -0.518581,-0.1799161 -0.169333,-0.1799161 -0.127,-0.4868318 0.05292,-0.317499 0.275166,-0.497415 0.232832,-0.1904994 0.582081,-0.1904994 0.349249,0 0.518582,0.1904994 0.179916,0.179916 0.126999,0.497415 -0.04233,0.3069157 -0.275165,0.4868318 -0.232833,0.1799161 -0.582082,0.1799161 z m 2.592912,8.7735556 1.227663,-7.7258089 h 0.952497 l -0.179916,1.1112464 h 0.190499 l -0.222249,0.2222493 q 0.105833,-0.6879144 0.582081,-1.0583299 0.476249,-0.3809988 1.238246,-0.3809988 0.571499,0 0.952497,0.2645825 0.391582,0.2645825 0.550332,0.7514142 0.169333,0.4868318 0.0635,1.1429964 l -0.264583,1.7039112 q -0.158749,1.0265801 -0.761997,1.5980783 -0.592665,0.5714983 -1.502829,0.5714983 -0.698498,0 -1.079497,-0.3915822 -0.380998,-0.4021654 -0.275165,-1.0477467 l 0.158749,0.2222493 h -0.211666 l -0.190499,1.3229126 -0.275166,1.693328 z m 2.645825,-2.6246585 q 0.603248,0 0.99483,-0.317499 0.391582,-0.317499 0.497415,-1.0265801 L 42.967735,6.4128505 Q 43.084151,5.6931861 42.787819,5.3862704 42.50207,5.0687715 41.898821,5.0687715 q -0.582081,0 -0.984246,0.3704154 -0.402166,0.3704155 -0.507999,1.0265801 L 40.16316,8.0532619 q -0.105833,0.6561646 0.179916,1.0265801 0.285749,0.3704155 0.867831,0.3704155 z"
       id="path6" /></g><circle
     style="fill:#4ebf9a;fill-opacity:1;stroke:none;stroke-width:0.411915;stroke-dasharray:none;stroke-opacity:1;paint-order:normal"
     id="circle4"
     cx="3.4395833"
     cy="8.3343754"
     r="0.52916664" /><circle
     style="fill:#1b1b1b;fill-opacity:1;stroke:none;stroke-width:0.617873;stroke-dasharray:none;stroke-opacity:1;paint-order:normal"
     id="path4-3"
     cx="5.2916665"
     cy="8.3343754"
     r="0.79374999" /><circle
     style="fill:#494949;fill-opacity:1;stroke:none;stroke-width:0.411915;stroke-dasharray:none;stroke-opacity:1;paint-order:normal"
     id="circle4-6"
     cx="5.2916665"
     cy="8.3343754"
     r="0.52916664" /></svg>
